ffmpeg version 4.2.4-1ubuntu0.1 Copyright (c) 2000-2020 the FFmpeg developers
  built with gcc 9 (Ubuntu 9.3.0-10ubuntu2)
  configuration: --prefix=/usr --extra-version=1ubuntu0.1 --toolchain=hardened --libdir=/usr/lib/x86_64-linux-gnu --incdir=/usr/include/x86_64-linux-gnu --arch=amd64 --enable-gpl --disable-stripping --enable-avresample --disable-filter=resample --enable-avisynth --enable-gnutls --enable-ladspa --enable-libaom --enable-libass --enable-libbluray --enable-libbs2b --enable-libcaca --enable-libcdio --enable-libcodec2 --enable-libflite --enable-libfontconfig --enable-libfreetype --enable-libfribidi --enable-libgme --enable-libgsm --enable-libjack --enable-libmp3lame --enable-libmysofa --enable-libopenjpeg --enable-libopenmpt --enable-libopus --enable-libpulse --enable-librsvg --enable-librubberband --enable-libshine --enable-libsnappy --enable-libsoxr --enable-libspeex --enable-libssh --enable-libtheora --enable-libtwolame --enable-libvidstab --enable-libvorbis --enable-libvpx --enable-libwavpack --enable-libwebp --enable-libx265 --enable-libxml2 --enable-libxvid --enable-libzmq --enable-libzvbi --enable-lv2 --enable-omx --enable-openal --enable-opencl --enable-opengl --enable-sdl2 --enable-libdc1394 --enable-libdrm --enable-libiec61883 --enable-nvenc --enable-chromaprint --enable-frei0r --enable-libx264 --enable-shared
  libavutil      56. 31.100 / 56. 31.100
  libavcodec     58. 54.100 / 58. 54.100
  libavformat    58. 29.100 / 58. 29.100
  libavdevice    58.  8.100 / 58.  8.100
  libavfilter     7. 57.100 /  7. 57.100
  libavresample   4.  0.  0 /  4.  0.  0
  libswscale      5.  5.100 /  5.  5.100
  libswresample   3.  5.100 /  3.  5.100
  libpostproc    55.  5.100 / 55.  5.100
Input #0, mov,mp4,m4a,3gp,3g2,mj2, from 'file_example_MP4_1920_18MG.mp4':
  Metadata:
    major_brand     : mp42
    minor_version   : 0
    compatible_brands: mp42mp41isomavc1
    creation_time   : 2015-08-07T09:13:36.000000Z
  Duration: 00:00:30.53, start: 0.000000, bitrate: 4675 kb/s
    Stream #0:0(und): Video: h264 (High) (avc1 / 0x31637661), yuv420p(tv, bt709), 1920x1080 [SAR 1:1 DAR 16:9], 4486 kb/s, 30 fps, 30 tbr, 30 tbn, 60 tbc (default)
    Metadata:
      creation_time   : 2015-08-07T09:13:36.000000Z
      handler_name    : L-SMASH Video Handler
      encoder         : AVC Coding
    Stream #0:1(und): Audio: aac (LC) (mp4a / 0x6134706D), 48000 Hz, stereo, fltp, 256 kb/s (default)
    Metadata:
      creation_time   : 2015-08-07T09:13:36.000000Z
      handler_name    : L-SMASH Audio Handler
Stream mapping:
  Stream #0:0 -> #0:0 (h264 (native) -> h264 (libx264))
  Stream #0:1 -> #0:1 (aac (native) -> aac (native))
Press [q] to stop, [?] for help
[libx264 @ 0x555f37345a40] using SAR=4/3
[libx264 @ 0x555f37345a40] using cpu capabilities: MMX2 SSE2Fast SSSE3 SSE4.2 AVX FMA3 BMI2 AVX2 AVX512
[libx264 @ 0x555f37345a40] profile High, level 5.1
[libx264 @ 0x555f37345a40] 264 - core 155 r2917 0a84d98 - H.264/MPEG-4 AVC codec - Copyleft 2003-2018 - http://www.videolan.org/x264.html - options: cabac=1 ref=5 deblock=1:0:0 analyse=0x3:0x113 me=hex subme=8 psy=1 psy_rd=1.00:0.00 mixed_ref=1 me_range=16 chroma_me=1 trellis=2 8x8dct=1 cqm=0 deadzone=21,11 fast_pskip=1 chroma_qp_offset=-2 threads=12 lookahead_threads=2 sliced_threads=0 nr=0 decimate=1 interlaced=0 bluray_compat=0 constrained_intra=0 bframes=3 b_pyramid=2 b_adapt=1 b_bias=0 direct=3 weightb=1 open_gop=0 weightp=2 keyint=50 keyint_min=5 scenecut=40 intra_refresh=0 rc_lookahead=50 rc=abr mbtree=1 bitrate=2220 ratetol=1.0 qcomp=0.60 qpmin=0 qpmax=69 qpstep=4 ip_ratio=1.40 aq=1:1.00
Output #0, mp4, to 'salida.mp4':
  Metadata:
    major_brand     : mp42
    minor_version   : 0
    compatible_brands: mp42mp41isomavc1
    encoder         : Lavf58.29.100
    Stream #0:0(und): Video: h264 (libx264) (avc1 / 0x31637661), yuv420p(progressive), 1024x768 [SAR 4:3 DAR 16:9], q=-1--1, 2220 kb/s, 30 fps, 15360 tbn, 30 tbc (default)
    Metadata:
      creation_time   : 2015-08-07T09:13:36.000000Z
      handler_name    : L-SMASH Video Handler
      encoder         : Lavc58.54.100 libx264
    Side data:
      cpb: bitrate max/min/avg: 0/0/2220000 buffer size: 0 vbv_delay: -1
    Stream #0:1(und): Audio: aac (LC) (mp4a / 0x6134706D), 44100 Hz, stereo, fltp, 64 kb/s (default)
    Metadata:
      creation_time   : 2015-08-07T09:13:36.000000Z
      handler_name    : L-SMASH Audio Handler
      encoder         : Lavc58.54.100 aac
frame=   85 fps=0.0 q=18.0 size=       0kB time=00:00:03.94 bitrate=   0.1kbits/s speed=7.47x    frame=  135 fps=129 q=19.0 size=     512kB time=00:00:04.94 bitrate= 848.1kbits/s speed=4.73x    frame=  185 fps=119 q=19.0 size=    1024kB time=00:00:06.96 bitrate=1204.3kbits/s speed=4.49x    frame=  235 fps=114 q=19.0 size=    1280kB time=00:00:07.96 bitrate=1316.6kbits/s speed=3.86x    frame=  287 fps=112 q=19.0 size=    1792kB time=00:00:09.96 bitrate=1473.7kbits/s speed=3.88x    frame=  339 fps=110 q=18.0 size=    2304kB time=00:00:11.98 bitrate=1575.3kbits/s speed=3.88x    frame=  393 fps=109 q=18.0 size=    2816kB time=00:00:12.97 bitrate=1777.3kbits/s speed=3.59x    frame=  447 fps=108 q=18.0 size=    3328kB time=00:00:14.97 bitrate=1820.4kbits/s speed=3.63x    frame=  501 fps=108 q=18.0 size=    3840kB time=00:00:16.99 bitrate=1850.8kbits/s speed=3.66x    frame=  555 fps=107 q=18.0 size=    4096kB time=00:00:18.99 bitrate=1766.6kbits/s speed=3.68x    frame=  606 fps=107 q=15.0 size=    4608kB time=00:00:19.99 bitrate=1888.2kbits/s speed=3.52x    frame=  659 fps=107 q=18.0 size=    5120kB time=00:00:21.98 bitrate=1907.4kbits/s speed=3.56x    frame=  710 fps=106 q=18.0 size=    5632kB time=00:00:24.00 bitrate=1921.7kbits/s speed=3.59x    frame=  762 fps=106 q=17.0 size=    5888kB time=00:00:25.00 bitrate=1928.8kbits/s speed=3.48x    frame=  809 fps=105 q=17.0 size=    6400kB time=00:00:27.00 bitrate=1941.5kbits/s speed=3.51x    frame=  856 fps=104 q=15.0 size=    6912kB time=00:00:28.02 bitrate=2020.4kbits/s speed=3.42x    frame=  901 fps= 98 q=-1.0 Lsize=    8155kB time=00:00:30.53 bitrate=2188.0kbits/s speed=3.33x    
video:8114kB audio:8kB subtitle:0kB other streams:0kB global headers:0kB muxing overhead: 0.409218%
[libx264 @ 0x555f37345a40] frame I:19    Avg QP: 3.42  size: 81863
[libx264 @ 0x555f37345a40] frame P:234   Avg QP:10.11  size: 22679
[libx264 @ 0x555f37345a40] frame B:648   Avg QP:13.56  size:  2232
[libx264 @ 0x555f37345a40] consecutive B-frames:  4.1%  0.0%  0.0% 95.9%
[libx264 @ 0x555f37345a40] mb I  I16..4: 64.4% 16.3% 19.3%
[libx264 @ 0x555f37345a40] mb P  I16..4:  0.1%  0.9%  0.2%  P16..4: 10.0% 10.8% 10.1%  0.0%  0.0%    skip:67.9%
[libx264 @ 0x555f37345a40] mb B  I16..4:  0.0%  0.0%  0.0%  B16..8: 13.4%  4.2%  1.0%  direct: 1.9%  skip:79.5%  L0:35.6% L1:48.3% BI:16.2%
[libx264 @ 0x555f37345a40] final ratefactor: 11.77
[libx264 @ 0x555f37345a40] 8x8 transform intra:23.5% inter:18.9%
[libx264 @ 0x555f37345a40] direct mvs  spatial:98.9% temporal:1.1%
[libx264 @ 0x555f37345a40] coded y,uvDC,uvAC intra: 39.3% 41.0% 39.5% inter: 8.0% 7.6% 4.6%
[libx264 @ 0x555f37345a40] i16 v,h,dc,p: 93%  1%  5%  1%
[libx264 @ 0x555f37345a40] i8 v,h,dc,ddl,ddr,vr,hd,vl,hu: 22%  9% 22%  5%  8% 12%  6%  8%  7%
[libx264 @ 0x555f37345a40] i4 v,h,dc,ddl,ddr,vr,hd,vl,hu: 13%  8% 12%  9% 12% 13%  9% 12% 12%
[libx264 @ 0x555f37345a40] i8c dc,h,v,p: 82%  4%  8%  5%
[libx264 @ 0x555f37345a40] Weighted P-Frames: Y:0.0% UV:0.0%
[libx264 @ 0x555f37345a40] ref P L0: 77.0% 10.5%  7.8%  3.3%  1.4%
[libx264 @ 0x555f37345a40] ref B L0: 88.0% 10.6%  1.3%  0.1%
[libx264 @ 0x555f37345a40] ref B L1: 90.4%  9.6%
[libx264 @ 0x555f37345a40] kb/s:2213.11
[aac @ 0x555f3739e340] Qavg: 65504.559
